solid exported
	facet normal 0.937241071296099 0 0.34868205327452795
		outer loop
			vertex 5.417966537036856 6.7 1.6459926759800325
			vertex 5.417966537036856 0 1.6459926759800325
			vertex 5.599323348560294 0 1.1585140382847197
		endloop
	endfacet
	facet normal 0.937241071296099 0 0.34868205327452795
		outer loop
			vertex 5.417966537036856 6.7 1.6459926759800325
			vertex 5.599323348560294 0 1.1585140382847197
			vertex 5.599323348560294 6.7 1.1585140382847197
		endloop
	endfacet
	facet normal 0.9636312205225985 0 0.2672356092180215
		outer loop
			vertex 5.599323348560294 6.7 1.1585140382847197
			vertex 5.599323348560294 0 1.1585140382847197
			vertex 5.738317946948966 0 0.657310119827688
		endloop
	endfacet
	facet normal 0.9636312205225985 0 0.2672356092180215
		outer loop
			vertex 5.599323348560294 6.7 1.1585140382847197
			vertex 5.738317946948966 0 0.657310119827688
			vertex 5.738317946948966 6.7 0.657310119827688
		endloop
	endfacet
	facet normal 0.9829585785680616 0 0.1838271819385151
		outer loop
			vertex 5.738317946948966 6.7 0.657310119827688
			vertex 5.738317946948966 0 0.657310119827688
			vertex 5.833930282154043 0 0.14605294819682868
		endloop
	endfacet
	facet normal 0.9829585785680616 0 0.1838271819385151
		outer loop
			vertex 5.738317946948966 6.7 0.657310119827688
			vertex 5.833930282154043 0 0.14605294819682868
			vertex 5.833930282154043 6.7 0.14605294819682868
		endloop
	endfacet
	facet normal 0.9950800573525393 0 0.0990741109436114
		outer loop
			vertex 5.833930282154043 6.7 0.14605294819682868
			vertex 5.833930282154043 0 0.14605294819682868
			vertex 5.885460738697011 0 -0.3715083921352029
		endloop
	endfacet
	facet normal 0.9950800573525393 0 0.0990741109436114
		outer loop
			vertex 5.833930282154043 6.7 0.14605294819682868
			vertex 5.885460738697011 0 -0.3715083921352029
			vertex 5.885460738697011 6.7 -0.3715083921352029
		endloop
	endfacet
	facet normal 0.9999075869110524 0 0.013594765084999537
		outer loop
			vertex 5.885460738697011 6.7 -0.3715083921352029
			vertex 5.885460738697011 0 -0.3715083921352029
			vertex 5.892531661548574 0 -0.8915813291469217
		endloop
	endfacet
	facet normal 0.9999075869110524 0 0.013594765084999537
		outer loop
			vertex 5.885460738697011 6.7 -0.3715083921352029
			vertex 5.892531661548574 0 -0.8915813291469217
			vertex 5.892531661548574 6.7 -0.8915813291469217
		endloop
	endfacet
	facet normal 0.9974054461290174 0 -0.07198872156231116
		outer loop
			vertex 5.892531661548574 6.7 -0.8915813291469217
			vertex 5.892531661548574 0 -0.8915813291469217
			vertex 5.855088882007559 0 -1.4103519285121555
		endloop
	endfacet
	facet normal 0.9974054461290174 0 -0.07198872156231116
		outer loop
			vertex 5.892531661548574 6.7 -0.8915813291469217
			vertex 5.855088882007559 0 -1.4103519285121555
			vertex 5.855088882007559 6.7 -1.4103519285121555
		endloop
	endfacet
	facet normal 0.9875925421216234 0 -0.1570381187665895
		outer loop
			vertex 5.855088882007559 6.7 -1.4103519285121555
			vertex 5.855088882007559 0 -1.4103519285121555
			vertex 5.773410110034902 0 -1.924019225875437
		endloop
	endfacet
	facet normal 0.9875925421216234 0 -0.1570381187665895
		outer loop
			vertex 5.855088882007559 6.7 -1.4103519285121555
			vertex 5.773410110034902 0 -1.924019225875437
			vertex 5.773410110034902 6.7 -1.924019225875437
		endloop
	endfacet
	facet normal 0.9705402565392971 0 -0.24093901808680857
		outer loop
			vertex 5.773410110034902 6.7 -1.924019225875437
			vertex 5.773410110034902 0 -1.924019225875437
			vertex 5.648092727222403 0 -2.4288173520961402
		endloop
	endfacet
	facet normal 0.9705402565392971 0 -0.24093901808680857
		outer loop
			vertex 5.773410110034902 6.7 -1.924019225875437
			vertex 5.648092727222403 0 -2.4288173520961402
			vertex 5.648092727222403 6.7 -2.4288173520961402
		endloop
	endfacet
	facet normal 0.9463731684989176 0 -0.3230755731176833
		outer loop
			vertex 5.648092727222403 6.7 -2.4288173520961402
			vertex 5.648092727222403 0 -2.4288173520961402
			vertex 5.480054549732168 0 -2.921045287887156
		endloop
	endfacet
	facet normal 0.9463731684989176 0 -0.3230755731176833
		outer loop
			vertex 5.648092727222403 6.7 -2.4288173520961402
			vertex 5.480054549732168 0 -2.921045287887156
			vertex 5.480054549732168 6.7 -2.921045287887156
		endloop
	endfacet
	facet normal 0.9152696810227863 0 -0.40284166989084835
		outer loop
			vertex 5.480054549732168 6.7 -2.921045287887156
			vertex 5.480054549732168 0 -2.921045287887156
			vertex 5.2705284877204495 0 -3.3970954740443826
		endloop
	endfacet
	facet normal 0.9152696810227863 0 -0.40284166989084835
		outer loop
			vertex 5.480054549732168 6.7 -2.921045287887156
			vertex 5.2705284877204495 0 -3.3970954740443826
			vertex 5.2705284877204495 6.7 -3.3970954740443826
		endloop
	endfacet
	facet normal 0.877456775474212 0 -0.4796557173373402
		outer loop
			vertex 5.2705284877204495 6.7 -3.3970954740443826
			vertex 5.2705284877204495 0 -3.3970954740443826
			vertex 5.021049575366934 0 -3.8534789884486793
		endloop
	endfacet
	facet normal 0.877456775474212 0 -0.4796557173373402
		outer loop
			vertex 5.2705284877204495 6.7 -3.3970954740443826
			vertex 5.021049575366934 0 -3.8534789884486793
			vertex 5.021049575366934 6.7 -3.8534789884486793
		endloop
	endfacet
	facet normal 0.8332117892999062 0 -0.5529539891995073
		outer loop
			vertex 5.021049575366934 6.7 -3.8534789884486793
			vertex 5.021049575366934 0 -3.8534789884486793
			vertex 4.733446578540763 0 -4.286849960128366
		endloop
	endfacet
	facet normal 0.8332117892999062 0 -0.5529539891995073
		outer loop
			vertex 5.021049575366934 6.7 -3.8534789884486793
			vertex 4.733446578540763 0 -4.286849960128366
			vertex 4.733446578540763 6.7 -4.286849960128366
		endloop
	endfacet
	facet normal 0.7828593180687982 0 -0.6221987529020421
		outer loop
			vertex 4.733446578540763 6.7 -4.286849960128366
			vertex 4.733446578540763 0 -4.286849960128366
			vertex 4.409828261890372 0 -4.694031127730906
		endloop
	endfacet
	facet normal 0.7828593180687982 0 -0.6221987529020421
		outer loop
			vertex 4.733446578540763 6.7 -4.286849960128366
			vertex 4.409828261890372 0 -4.694031127730906
			vertex 4.409828261890372 6.7 -4.694031127730906
		endloop
	endfacet
	facet normal 0.7267691723714118 0 -0.6868817730079706
		outer loop
			vertex 4.409828261890372 6.7 -4.694031127730906
			vertex 4.409828261890372 0 -4.694031127730906
			vertex 4.05256736711498 0 -5.072038253585398
		endloop
	endfacet
	facet normal 0.7267691723714118 0 -0.6868817730079706
		outer loop
			vertex 4.409828261890372 6.7 -4.694031127730906
			vertex 4.05256736711498 0 -5.072038253585398
			vertex 4.05256736711498 6.7 -5.072038253585398
		endloop
	endfacet
	facet normal 0.6653500038555706 0 -0.7465315615360093
		outer loop
			vertex 4.05256736711498 6.7 -5.072038253585398
			vertex 4.05256736711498 0 -5.072038253585398
			vertex 3.664280776538808 0 -5.4181006277003885
		endloop
	endfacet
	facet normal 0.6653500038555706 0 -0.7465315615360093
		outer loop
			vertex 4.05256736711498 6.7 -5.072038253585398
			vertex 3.664280776538808 0 -5.4181006277003885
			vertex 3.664280776538808 6.7 -5.4181006277003885
		endloop
	endfacet
	facet normal 0.5990556339187866 0 -0.8007074044057299
		outer loop
			vertex 3.664280776538808 6.7 -5.4181006277003885
			vertex 3.664280776538808 0 -5.4181006277003885
			vertex 3.2478165431403703 0 -5.7296816671291
		endloop
	endfacet
	facet normal 0.5990556339187866 0 -0.8007074044057299
		outer loop
			vertex 3.664280776538808 6.7 -5.4181006277003885
			vertex 3.2478165431403703 0 -5.7296816671291
			vertex 3.2478165431403703 6.7 -5.7296816671291
		endloop
	endfacet
	facet normal 0.5283675483256823 0 -0.8490157441863536
		outer loop
			vertex 3.2478165431403703 6.7 -5.7296816671291
			vertex 3.2478165431403703 0 -5.7296816671291
			vertex 2.8062256617927144 0 -6.004496701995432
		endloop
	endfacet
	facet normal 0.5283675483256823 0 -0.8490157441863536
		outer loop
			vertex 3.2478165431403703 6.7 -5.7296816671291
			vertex 2.8062256617927144 0 -6.004496701995432
			vertex 2.8062256617927144 6.7 -6.004496701995432
		endloop
	endfacet
	facet normal 0.4538091889590507 0 -0.8910988834109989
		outer loop
			vertex 2.8062256617927144 6.7 -6.004496701995432
			vertex 2.8062256617927144 0 -6.004496701995432
			vertex 2.342746810474356 0 -6.240532192031443
		endloop
	endfacet
	facet normal 0.4538091889590507 0 -0.8910988834109989
		outer loop
			vertex 2.8062256617927144 6.7 -6.004496701995432
			vertex 2.342746810474356 0 -6.240532192031443
			vertex 2.342746810474356 6.7 -6.240532192031443
		endloop
	endfacet
	facet normal 0.37592275663592906 0 -0.9266510028285968
		outer loop
			vertex 2.342746810474356 6.7 -6.240532192031443
			vertex 2.342746810474356 0 -6.240532192031443
			vertex 1.8607773585700578 0 -6.436057027617991
		endloop
	endfacet
	facet normal 0.37592275663592906 0 -0.9266510028285968
		outer loop
			vertex 2.342746810474356 6.7 -6.240532192031443
			vertex 1.8607773585700578 0 -6.436057027617991
			vertex 1.8607773585700578 6.7 -6.436057027617991
		endloop
	endfacet
	facet normal 0.2952812752903076 0 -0.9554103665247355
		outer loop
			vertex 1.8607773585700578 6.7 -6.436057027617991
			vertex 1.8607773585700578 0 -6.436057027617991
			vertex 1.3638489528083397 0 -6.589638837615549
		endloop
	endfacet
	facet normal 0.2952812752903076 0 -0.9554103665247355
		outer loop
			vertex 1.8607773585700578 6.7 -6.436057027617991
			vertex 1.3638489528083397 0 -6.589638837615549
			vertex 1.3638489528083397 6.7 -6.589638837615549
		endloop
	endfacet
	facet normal 0.21247399599602035 0 -0.9771667212024175
		outer loop
			vertex 1.3638489528083397 6.7 -6.589638837615549
			vertex 1.3638489528083397 0 -6.589638837615549
			vertex 0.8556038661384182 0 -6.700151058475077
		endloop
	endfacet
	facet normal 0.21247399599602035 0 -0.9771667212024175
		outer loop
			vertex 1.3638489528083397 6.7 -6.589638837615549
			vertex 0.8556038661384182 0 -6.700151058475077
			vertex 0.8556038661384182 6.7 -6.700151058475077
		endloop
	endfacet
	facet normal 0.1281116448826677 0 -0.9917597523823285
		outer loop
			vertex 0.8556038661384182 6.7 -6.700151058475077
			vertex 0.8556038661384182 0 -6.700151058475077
			vertex 0.33976905778880884 0 -6.766784580985606
		endloop
	endfacet
	facet normal 0.1281116448826677 0 -0.9917597523823285
		outer loop
			vertex 0.8556038661384182 6.7 -6.700151058475077
			vertex 0.33976905778880884 0 -6.766784580985606
			vertex 0.33976905778880884 6.7 -6.766784580985606
		endloop
	endfacet
	facet normal 0.04280801934737849 0 -0.9990833165855361
		outer loop
			vertex 0.33976905778880884 6.7 -6.766784580985606
			vertex 0.33976905778880884 0 -6.766784580985606
			vertex -0.17987434431080107 0 -6.789049896041453
		endloop
	endfacet
	facet normal 0.04280801934737849 0 -0.9990833165855361
		outer loop
			vertex 0.33976905778880884 6.7 -6.766784580985606
			vertex -0.17987434431080107 0 -6.789049896041453
			vertex -0.17987434431080107 6.7 -6.789049896041453
		endloop
	endfacet
	facet normal -0.04280798797966297 0 -0.9990833179295575
		outer loop
			vertex -0.17987434431080107 6.7 -6.789049896041453
			vertex -0.17987434431080107 0 -6.789049896041453
			vertex -0.699518127880137 0 -6.766784580985606
		endloop
	endfacet
	facet normal -0.04280798797966297 0 -0.9990833179295575
		outer loop
			vertex -0.17987434431080107 6.7 -6.789049896041453
			vertex -0.699518127880137 0 -6.766784580985606
			vertex -0.699518127880137 6.7 -6.766784580985606
		endloop
	endfacet
	facet normal -0.12811173806880571 0 -0.9917597403449032
		outer loop
			vertex -0.699518127880137 6.7 -6.766784580985606
			vertex -0.699518127880137 0 -6.766784580985606
			vertex -1.2153525547600195 0 -6.700151058475077
		endloop
	endfacet
	facet normal -0.12811173806880571 0 -0.9917597403449032
		outer loop
			vertex -0.699518127880137 6.7 -6.766784580985606
			vertex -1.2153525547600195 0 -6.700151058475077
			vertex -1.2153525547600195 6.7 -6.700151058475077
		endloop
	endfacet
	facet normal -0.21247430054743024 0 -0.9771666549810633
		outer loop
			vertex -1.2153525547600195 6.7 -6.700151058475077
			vertex -1.2153525547600195 0 -6.700151058475077
			vertex -1.723596878490489 0 -6.589638837615549
		endloop
	endfacet
	facet normal -0.21247430054743024 0 -0.9771666549810633
		outer loop
			vertex -1.2153525547600195 6.7 -6.700151058475077
			vertex -1.723596878490489 0 -6.589638837615549
			vertex -1.723596878490489 6.7 -6.589638837615549
		endloop
	endfacet
	facet normal -0.295281068380169 0 -0.9554104304728237
		outer loop
			vertex -1.723596878490489 6.7 -6.589638837615549
			vertex -1.723596878490489 0 -6.589638837615549
			vertex -2.220525665721934 0 -6.436057027617991
		endloop
	endfacet
	facet normal -0.295281068380169 0 -0.9554104304728237
		outer loop
			vertex -1.723596878490489 6.7 -6.589638837615549
			vertex -2.220525665721934 0 -6.436057027617991
			vertex -2.220525665721934 6.7 -6.436057027617991
		endloop
	endfacet
	facet normal -0.3759225011474556 0 -0.926651106474838
		outer loop
			vertex -2.220525665721934 6.7 -6.436057027617991
			vertex -2.220525665721934 0 -6.436057027617991
			vertex -2.7024954990959573 0 -6.240532192031443
		endloop
	endfacet
	facet normal -0.3759225011474556 0 -0.926651106474838
		outer loop
			vertex -2.220525665721934 6.7 -6.436057027617991
			vertex -2.7024954990959573 0 -6.240532192031443
			vertex -2.7024954990959573 6.7 -6.240532192031443
		endloop
	endfacet
	facet normal -0.4538087440757246 0 -0.8910991099762212
		outer loop
			vertex -2.7024954990959573 6.7 -6.240532192031443
			vertex -2.7024954990959573 0 -6.240532192031443
			vertex -3.1659749226189065 0 -6.004496701995432
		endloop
	endfacet
	facet normal -0.4538087440757246 0 -0.8910991099762212
		outer loop
			vertex -2.7024954990959573 6.7 -6.240532192031443
			vertex -3.1659749226189065 0 -6.004496701995432
			vertex -3.1659749226189065 6.7 -6.004496701995432
		endloop
	endfacet
	facet normal -0.5283682063440808 0 -0.8490153346817353
		outer loop
			vertex -3.1659749226189065 6.7 -6.004496701995432
			vertex -3.1659749226189065 0 -6.004496701995432
			vertex -3.60756504102711 0 -5.7296816671291
		endloop
	endfacet
	facet normal -0.5283682063440808 0 -0.8490153346817353
		outer loop
			vertex -3.1659749226189065 6.7 -6.004496701995432
			vertex -3.60756504102711 0 -5.7296816671291
			vertex -3.60756504102711 6.7 -5.7296816671291
		endloop
	endfacet
	facet normal -0.5990552821178178 0 -0.8007076676083111
		outer loop
			vertex -3.60756504102711 6.7 -5.7296816671291
			vertex -3.60756504102711 0 -5.7296816671291
			vertex -4.024029655895274 0 -5.4181006277003885
		endloop
	endfacet
	facet normal -0.5990552821178178 0 -0.8007076676083111
		outer loop
			vertex -3.60756504102711 6.7 -5.7296816671291
			vertex -4.024029655895274 0 -5.4181006277003885
			vertex -4.024029655895274 6.7 -5.4181006277003885
		endloop
	endfacet
	facet normal -0.6653501860035139 0 -0.7465313991956999
		outer loop
			vertex -4.024029655895274 6.7 -5.4181006277003885
			vertex -4.024029655895274 0 -5.4181006277003885
			vertex -4.412316055736582 0 -5.072038253585398
		endloop
	endfacet
	facet normal -0.6653501860035139 0 -0.7465313991956999
		outer loop
			vertex -4.024029655895274 6.7 -5.4181006277003885
			vertex -4.412316055736582 0 -5.072038253585398
			vertex -4.412316055736582 6.7 -5.072038253585398
		endloop
	endfacet
	facet normal -0.7267688977741075 0 -0.6868820635510938
		outer loop
			vertex -4.412316055736582 6.7 -5.072038253585398
			vertex -4.412316055736582 0 -5.072038253585398
			vertex -4.769577236614268 0 -4.694031127730906
		endloop
	endfacet
	facet normal -0.7267688977741075 0 -0.6868820635510938
		outer loop
			vertex -4.412316055736582 6.7 -5.072038253585398
			vertex -4.769577236614268 0 -4.694031127730906
			vertex -4.769577236614268 6.7 -4.694031127730906
		endloop
	endfacet
	facet normal -0.7828594073806306 0 -0.622198640528608
		outer loop
			vertex -4.769577236614268 6.7 -4.694031127730906
			vertex -4.769577236614268 0 -4.694031127730906
			vertex -5.093195457897227 0 -4.286849960128366
		endloop
	endfacet
	facet normal -0.7828594073806306 0 -0.622198640528608
		outer loop
			vertex -4.769577236614268 6.7 -4.694031127730906
			vertex -5.093195457897227 0 -4.286849960128366
			vertex -5.093195457897227 6.7 -4.286849960128366
		endloop
	endfacet
	facet normal -0.8332119582545219 0 -0.5529537346122775
		outer loop
			vertex -5.093195457897227 6.7 -4.286849960128366
			vertex -5.093195457897227 0 -4.286849960128366
			vertex -5.3807982639885354 0 -3.8534789884486793
		endloop
	endfacet
	facet normal -0.8332119582545219 0 -0.5529537346122775
		outer loop
			vertex -5.093195457897227 6.7 -4.286849960128366
			vertex -5.3807982639885354 0 -3.8534789884486793
			vertex -5.3807982639885354 6.7 -3.8534789884486793
		endloop
	endfacet
	facet normal -0.8774570069856247 0 -0.4796552938223756
		outer loop
			vertex -5.3807982639885354 6.7 -3.8534789884486793
			vertex -5.3807982639885354 0 -3.8534789884486793
			vertex -5.630276890239756 0 -3.3970954740443826
		endloop
	endfacet
	facet normal -0.8774570069856247 0 -0.4796552938223756
		outer loop
			vertex -5.3807982639885354 6.7 -3.8534789884486793
			vertex -5.630276890239756 0 -3.3970954740443826
			vertex -5.630276890239756 6.7 -3.3970954740443826
		endloop
	endfacet
	facet normal -0.9152694782072154 0 -0.40284213069426084
		outer loop
			vertex -5.630276890239756 6.7 -3.3970954740443826
			vertex -5.630276890239756 0 -3.3970954740443826
			vertex -5.83980323835377 0 -2.921045287887156
		endloop
	endfacet
	facet normal -0.9152694782072154 0 -0.40284213069426084
		outer loop
			vertex -5.630276890239756 6.7 -3.3970954740443826
			vertex -5.83980323835377 0 -2.921045287887156
			vertex -5.83980323835377 6.7 -2.921045287887156
		endloop
	endfacet
	facet normal -0.9463731684989176 0 -0.3230755731176833
		outer loop
			vertex -5.83980323835377 6.7 -2.921045287887156
			vertex -5.83980323835377 0 -2.921045287887156
			vertex -6.0078414158440046 0 -2.4288173520961402
		endloop
	endfacet
	facet normal -0.9463731684989176 0 -0.3230755731176833
		outer loop
			vertex -5.83980323835377 6.7 -2.921045287887156
			vertex -6.0078414158440046 0 -2.4288173520961402
			vertex -6.0078414158440046 6.7 -2.4288173520961402
		endloop
	endfacet
	facet normal -0.9705401439890994 0 -0.24093947145625283
		outer loop
			vertex -6.0078414158440046 6.7 -2.4288173520961402
			vertex -6.0078414158440046 0 -2.4288173520961402
			vertex -6.133159048996013 0 -1.924019225875437
		endloop
	endfacet
	facet normal -0.9705401439890994 0 -0.24093947145625283
		outer loop
			vertex -6.0078414158440046 6.7 -2.4288173520961402
			vertex -6.133159048996013 0 -1.924019225875437
			vertex -6.133159048996013 6.7 -1.924019225875437
		endloop
	endfacet
	facet normal -0.9875924061584064 0 -0.15703897381939694
		outer loop
			vertex -6.133159048996013 6.7 -1.924019225875437
			vertex -6.133159048996013 0 -1.924019225875437
			vertex -6.214838276944201 0 -1.4103519285121555
		endloop
	endfacet
	facet normal -0.9875924061584064 0 -0.15703897381939694
		outer loop
			vertex -6.133159048996013 6.7 -1.924019225875437
			vertex -6.214838276944201 0 -1.4103519285121555
			vertex -6.214838276944201 6.7 -1.4103519285121555
		endloop
	endfacet
	facet normal -0.9974056362004288 0 -0.07198608806997492
		outer loop
			vertex -6.214838276944201 6.7 -1.4103519285121555
			vertex -6.214838276944201 0 -1.4103519285121555
			vertex -6.2522796796179225 0 -0.8915813291469217
		endloop
	endfacet
	facet normal -0.9974056362004288 0 -0.07198608806997492
		outer loop
			vertex -6.214838276944201 6.7 -1.4103519285121555
			vertex -6.2522796796179225 0 -0.8915813291469217
			vertex -6.2522796796179225 6.7 -0.8915813291469217
		endloop
	endfacet
	facet normal -0.9999076050583473 0 0.013593430269081223
		outer loop
			vertex -6.2522796796179225 6.7 -0.8915813291469217
			vertex -6.2522796796179225 0 -0.8915813291469217
			vertex -6.245209451160472 0 -0.3715083921352029
		endloop
	endfacet
	facet normal -0.9999076050583473 0 0.013593430269081223
		outer loop
			vertex -6.2522796796179225 6.7 -0.8915813291469217
			vertex -6.245209451160472 0 -0.3715083921352029
			vertex -6.245209451160472 6.7 -0.3715083921352029
		endloop
	endfacet
	facet normal -0.995080058482321 0 0.09907409959631647
		outer loop
			vertex -6.245209451160472 6.7 -0.3715083921352029
			vertex -6.245209451160472 0 -0.3715083921352029
			vertex -6.193679000577967 0 0.14605294819682868
		endloop
	endfacet
	facet normal -0.995080058482321 0 0.09907409959631647
		outer loop
			vertex -6.245209451160472 6.7 -0.3715083921352029
			vertex -6.193679000577967 0 0.14605294819682868
			vertex -6.193679000577967 6.7 0.14605294819682868
		endloop
	endfacet
	facet normal -0.9829585019514344 0 0.1838275916215839
		outer loop
			vertex -6.193679000577967 6.7 0.14605294819682868
			vertex -6.193679000577967 0 0.14605294819682868
			vertex -6.098066444835704 0 0.657310119827688
		endloop
	endfacet
	facet normal -0.9829585019514344 0 0.1838275916215839
		outer loop
			vertex -6.193679000577967 6.7 0.14605294819682868
			vertex -6.098066444835704 0 0.657310119827688
			vertex -6.098066444835704 6.7 0.657310119827688
		endloop
	endfacet
	facet normal -0.9636313621745574 0 0.2672350984313384
		outer loop
			vertex -6.098066444835704 6.7 0.657310119827688
			vertex -6.098066444835704 0 0.657310119827688
			vertex -5.959072132549327 0 1.1585140382847197
		endloop
	endfacet
	facet normal -0.9636313621745574 0 0.2672350984313384
		outer loop
			vertex -6.098066444835704 6.7 0.657310119827688
			vertex -5.959072132549327 0 1.1585140382847197
			vertex -5.959072132549327 6.7 1.1585140382847197
		endloop
	endfacet
	facet normal -0.937241071296099 0 0.34868205327452795
		outer loop
			vertex -5.959072132549327 6.7 1.1585140382847197
			vertex -5.959072132549327 0 1.1585140382847197
			vertex -5.777715321025889 0 1.6459926759800325
		endloop
	endfacet
	facet normal -0.937241071296099 0 0.34868205327452795
		outer loop
			vertex -5.959072132549327 6.7 1.1585140382847197
			vertex -5.777715321025889 0 1.6459926759800325
			vertex -5.777715321025889 6.7 1.6459926759800325
		endloop
	endfacet
	facet normal -0.9214553258726568 0 0.38848433999444043
		outer loop
			vertex -4.43768856092457 6.7 4.824434295853079
			vertex -5.777715321025889 6.7 1.6459926759800325
			vertex -4.43768856092457 0 4.824434295853079
		endloop
	endfacet
	facet normal -0.9214553258726568 0 0.38848433999444043
		outer loop
			vertex -4.43768856092457 0 4.824434295853079
			vertex -5.777715321025889 6.7 1.6459926759800325
			vertex -5.777715321025889 0 1.6459926759800325
		endloop
	endfacet
	facet normal -0.9043962595533946 0 0.42669357354643717
		outer loop
			vertex -4.43768856092457 6.7 4.824434295853079
			vertex -4.43768856092457 0 4.824434295853079
			vertex -4.401984329662364 0 4.900111023148002
		endloop
	endfacet
	facet normal -0.9043962595533946 0 0.42669357354643717
		outer loop
			vertex -4.43768856092457 6.7 4.824434295853079
			vertex -4.401984329662364 0 4.900111023148002
			vertex -4.401984329662364 6.7 4.900111023148002
		endloop
	endfacet
	facet normal -0.8655536561926109 0 0.5008162020657915
		outer loop
			vertex -4.401984329662364 6.7 4.900111023148002
			vertex -4.401984329662364 0 4.900111023148002
			vertex -4.360078163585704 0 4.972536865433158
		endloop
	endfacet
	facet normal -0.8655536561926109 0 0.5008162020657915
		outer loop
			vertex -4.401984329662364 6.7 4.900111023148002
			vertex -4.360078163585704 0 4.972536865433158
			vertex -4.360078163585704 6.7 4.972536865433158
		endloop
	endfacet
	facet normal -0.8206574946410417 0 0.5714204025841995
		outer loop
			vertex -4.360078163585704 6.7 4.972536865433158
			vertex -4.360078163585704 0 4.972536865433158
			vertex -4.31226360364918 0 5.041206756790579
		endloop
	endfacet
	facet normal -0.8206574946410417 0 0.5714204025841995
		outer loop
			vertex -4.360078163585704 6.7 4.972536865433158
			vertex -4.31226360364918 0 5.041206756790579
			vertex -4.31226360364918 6.7 5.041206756790579
		endloop
	endfacet
	facet normal -0.7700067144943992 0 0.6380357824084328
		outer loop
			vertex -4.31226360364918 6.7 5.041206756790579
			vertex -4.31226360364918 0 5.041206756790579
			vertex -4.258875389537852 0 5.105637756546438
		endloop
	endfacet
	facet normal -0.7700067144943992 0 0.6380357824084328
		outer loop
			vertex -4.31226360364918 6.7 5.041206756790579
			vertex -4.258875389537852 0 5.105637756546438
			vertex -4.258875389537852 6.7 5.105637756546438
		endloop
	endfacet
	facet normal -0.7139797075273755 0 0.7001663925376049
		outer loop
			vertex -4.258875389537852 6.7 5.105637756546438
			vertex -4.258875389537852 0 5.105637756546438
			vertex -4.200287743053477 0 5.1653812563022985
		endloop
	endfacet
	facet normal -0.7139797075273755 0 0.7001663925376049
		outer loop
			vertex -4.258875389537852 6.7 5.105637756546438
			vertex -4.200287743053477 0 5.1653812563022985
			vertex -4.200287743053477 6.7 5.1653812563022985
		endloop
	endfacet
	facet normal -0.6529329034385862 0 0.7574157534718022
		outer loop
			vertex -4.200287743053477 6.7 5.1653812563022985
			vertex -4.200287743053477 0 5.1653812563022985
			vertex -4.13691017194752 0 5.220016113480032
		endloop
	endfacet
	facet normal -0.6529329034385862 0 0.7574157534718022
		outer loop
			vertex -4.200287743053477 6.7 5.1653812563022985
			vertex -4.13691017194752 0 5.220016113480032
			vertex -4.13691017194752 6.7 5.220016113480032
		endloop
	endfacet
	facet normal -0.5873288985586795 0 0.8093483581980312
		outer loop
			vertex -4.13691017194752 6.7 5.220016113480032
			vertex -4.13691017194752 0 5.220016113480032
			vertex -4.069186897716563 0 5.2691616212925325
		endloop
	endfacet
	facet normal -0.5873288985586795 0 0.8093483581980312
		outer loop
			vertex -4.13691017194752 6.7 5.220016113480032
			vertex -4.069186897716563 0 5.2691616212925325
			vertex -4.069186897716563 6.7 5.2691616212925325
		endloop
	endfacet
	facet normal -0.5176134935032849 0 0.8556145576971708
		outer loop
			vertex -4.069186897716563 6.7 5.2691616212925325
			vertex -4.069186897716563 0 5.2691616212925325
			vertex -3.997592087230723 0 5.312473694046439
		endloop
	endfacet
	facet normal -0.5176134935032849 0 0.8556145576971708
		outer loop
			vertex -4.069186897716563 6.7 5.2691616212925325
			vertex -3.997592087230723 0 5.312473694046439
			vertex -3.997592087230723 6.7 5.312473694046439
		endloop
	endfacet
	facet normal -0.4442707095300188 0 0.8958925921413201
		outer loop
			vertex -3.997592087230723 6.7 5.312473694046439
			vertex -3.997592087230723 0 5.312473694046439
			vertex -3.9226269917107035 0 5.3496486818394064
		endloop
	endfacet
	facet normal -0.4442707095300188 0 0.8958925921413201
		outer loop
			vertex -3.997592087230723 6.7 5.312473694046439
			vertex -3.9226269917107035 0 5.3496486818394064
			vertex -3.9226269917107035 6.7 5.3496486818394064
		endloop
	endfacet
	facet normal -0.3678013244721765 0 0.9299043960088117
		outer loop
			vertex -3.9226269917107035 6.7 5.3496486818394064
			vertex -3.9226269917107035 0 5.3496486818394064
			vertex -3.8448161320305276 0 5.380424896439017
		endloop
	endfacet
	facet normal -0.3678013244721765 0 0.9299043960088117
		outer loop
			vertex -3.9226269917107035 6.7 5.3496486818394064
			vertex -3.8448161320305276 0 5.380424896439017
			vertex -3.8448161320305276 6.7 5.380424896439017
		endloop
	endfacet
	facet normal -0.28878590460826503 0 0.9573937023500761
		outer loop
			vertex -3.8448161320305276 6.7 5.380424896439017
			vertex -3.8448161320305276 0 5.380424896439017
			vertex -3.764704819164317 0 5.404589477737845
		endloop
	endfacet
	facet normal -0.28878590460826503 0 0.9573937023500761
		outer loop
			vertex -3.8448161320305276 6.7 5.380424896439017
			vertex -3.764704819164317 0 5.404589477737845
			vertex -3.764704819164317 6.7 5.404589477737845
		endloop
	endfacet
	facet normal -0.2077209444971272 0 0.978188125677889
		outer loop
			vertex -3.764704819164317 6.7 5.404589477737845
			vertex -3.764704819164317 0 5.404589477737845
			vertex -3.6828538136101177 0 5.421970764358939
		endloop
	endfacet
	facet normal -0.2077209444971272 0 0.978188125677889
		outer loop
			vertex -3.764704819164317 6.7 5.404589477737845
			vertex -3.6828538136101177 0 5.421970764358939
			vertex -3.6828538136101177 6.7 5.421970764358939
		endloop
	endfacet
	facet normal -0.12522303780750615 0 0.9921286160585532
		outer loop
			vertex -3.6828538136101177 6.7 5.421970764358939
			vertex -3.6828538136101177 0 5.421970764358939
			vertex -3.5998360828972267 0 5.432448974808157
		endloop
	endfacet
	facet normal -0.12522303780750615 0 0.9921286160585532
		outer loop
			vertex -3.6828538136101177 6.7 5.421970764358939
			vertex -3.5998360828972267 0 5.432448974808157
			vertex -3.5998360828972267 6.7 5.432448974808157
		endloop
	endfacet
	facet normal -0.04185050763145382 0 0.999123883715623
		outer loop
			vertex -3.5998360828972267 6.7 5.432448974808157
			vertex -3.5998360828972267 0 5.432448974808157
			vertex -3.516233177623789 0 5.4359508668980006
		endloop
	endfacet
	facet normal -0.04185050763145382 0 0.999123883715623
		outer loop
			vertex -3.5998360828972267 6.7 5.432448974808157
			vertex -3.516233177623789 0 5.4359508668980006
			vertex -3.516233177623789 6.7 5.4359508668980006
		endloop
	endfacet
	facet normal 0 0 1
		outer loop
			vertex 3.1564842982673245 6.7 5.4359508668980006
			vertex -3.516233177623789 6.7 5.4359508668980006
			vertex 3.1564842982673245 0 5.4359508668980006
		endloop
	endfacet
	facet normal 0 0 1
		outer loop
			vertex 3.1564842982673245 0 5.4359508668980006
			vertex -3.516233177623789 6.7 5.4359508668980006
			vertex -3.516233177623789 0 5.4359508668980006
		endloop
	endfacet
	facet normal 0.04185050763145382 0 0.999123883715623
		outer loop
			vertex 3.1564842982673245 6.7 5.4359508668980006
			vertex 3.1564842982673245 0 5.4359508668980006
			vertex 3.240087203540762 0 5.432448974808157
		endloop
	endfacet
	facet normal 0.04185050763145382 0 0.999123883715623
		outer loop
			vertex 3.1564842982673245 6.7 5.4359508668980006
			vertex 3.240087203540762 0 5.432448974808157
			vertex 3.240087203540762 6.7 5.432448974808157
		endloop
	endfacet
	facet normal 0.12522303780750615 0 0.9921286160585532
		outer loop
			vertex 3.240087203540762 6.7 5.432448974808157
			vertex 3.240087203540762 0 5.432448974808157
			vertex 3.323104934253653 0 5.421970764358939
		endloop
	endfacet
	facet normal 0.12522303780750615 0 0.9921286160585532
		outer loop
			vertex 3.240087203540762 6.7 5.432448974808157
			vertex 3.323104934253653 0 5.421970764358939
			vertex 3.323104934253653 6.7 5.421970764358939
		endloop
	endfacet
	facet normal 0.20772048133805154 0 0.9781882240308806
		outer loop
			vertex 3.323104934253653 6.7 5.421970764358939
			vertex 3.323104934253653 0 5.421970764358939
			vertex 3.4049561305427147 0 5.404589477737845
		endloop
	endfacet
	facet normal 0.20772048133805154 0 0.9781882240308806
		outer loop
			vertex 3.323104934253653 6.7 5.421970764358939
			vertex 3.4049561305427147 0 5.404589477737845
			vertex 3.4049561305427147 6.7 5.404589477737845
		endloop
	endfacet
	facet normal 0.2887871650569312 0 0.9573933221505051
		outer loop
			vertex 3.4049561305427147 6.7 5.404589477737845
			vertex 3.4049561305427147 0 5.404589477737845
			vertex 3.4850670619391995 0 5.380424896439017
		endloop
	endfacet
	facet normal 0.2887871650569312 0 0.9573933221505051
		outer loop
			vertex 3.4049561305427147 6.7 5.404589477737845
			vertex 3.4850670619391995 0 5.380424896439017
			vertex 3.4850670619391995 6.7 5.380424896439017
		endloop
	endfacet
	facet normal 0.3678021040879328 0 0.929904087650167
		outer loop
			vertex 3.4850670619391995 6.7 5.380424896439017
			vertex 3.4850670619391995 0 5.380424896439017
			vertex 3.5628777308845123 0 5.3496486818394064
		endloop
	endfacet
	facet normal 0.3678021040879328 0 0.929904087650167
		outer loop
			vertex 3.4850670619391995 6.7 5.380424896439017
			vertex 3.5628777308845123 0 5.3496486818394064
			vertex 3.5628777308845123 6.7 5.3496486818394064
		endloop
	endfacet
	facet normal 0.4442679877722109 0 0.895893941848493
		outer loop
			vertex 3.5628777308845123 6.7 5.3496486818394064
			vertex 3.5628777308845123 0 5.3496486818394064
			vertex 3.637843398609121 0 5.312473694046439
		endloop
	endfacet
	facet normal 0.4442679877722109 0 0.895893941848493
		outer loop
			vertex 3.5628777308845123 6.7 5.3496486818394064
			vertex 3.637843398609121 0 5.312473694046439
			vertex 3.637843398609121 6.7 5.312473694046439
		endloop
	endfacet
	facet normal 0.5176124839952818 0 0.8556151684093932
		outer loop
			vertex 3.637843398609121 6.7 5.312473694046439
			vertex 3.637843398609121 0 5.312473694046439
			vertex 3.709438399829825 0 5.2691616212925325
		endloop
	endfacet
	facet normal 0.5176124839952818 0 0.8556151684093932
		outer loop
			vertex 3.637843398609121 6.7 5.312473694046439
			vertex 3.709438399829825 0 5.2691616212925325
			vertex 3.709438399829825 6.7 5.2691616212925325
		endloop
	endfacet
	facet normal 0.5873343162897243 0 0.809344426624711
		outer loop
			vertex 3.709438399829825 6.7 5.2691616212925325
			vertex 3.709438399829825 0 5.2691616212925325
			vertex 3.7771607203864654 0 5.220016113480032
		endloop
	endfacet
	facet normal 0.5873343162897243 0 0.809344426624711
		outer loop
			vertex 3.709438399829825 6.7 5.2691616212925325
			vertex 3.7771607203864654 0 5.220016113480032
			vertex 3.7771607203864654 6.7 5.220016113480032
		endloop
	endfacet
	facet normal 0.6529295216102832 0 0.7574186687755767
		outer loop
			vertex 3.7771607203864654 6.7 5.220016113480032
			vertex 3.7771607203864654 0 5.220016113480032
			vertex 3.8405388636970113 0 5.1653812563022985
		endloop
	endfacet
	facet normal 0.6529295216102832 0 0.7574186687755767
		outer loop
			vertex 3.7771607203864654 6.7 5.220016113480032
			vertex 3.8405388636970113 0 5.1653812563022985
			vertex 3.8405388636970113 6.7 5.1653812563022985
		endloop
	endfacet
	facet normal 0.7139751495613765 0 0.7001710403957091
		outer loop
			vertex 3.8405388636970113 6.7 5.1653812563022985
			vertex 3.8405388636970113 0 5.1653812563022985
			vertex 3.8991272731208397 0 5.105637756546438
		endloop
	endfacet
	facet normal 0.7139751495613765 0 0.7001710403957091
		outer loop
			vertex 3.8405388636970113 6.7 5.1653812563022985
			vertex 3.8991272731208397 0 5.105637756546438
			vertex 3.8991272731208397 6.7 5.105637756546438
		endloop
	endfacet
	facet normal 0.7700111939986203 0 0.6380303763276629
		outer loop
			vertex 3.8991272731208397 6.7 5.105637756546438
			vertex 3.8991272731208397 0 5.105637756546438
			vertex 3.9525147242927154 0 5.041206756790579
		endloop
	endfacet
	facet normal 0.7700111939986203 0 0.6380303763276629
		outer loop
			vertex 3.8991272731208397 6.7 5.105637756546438
			vertex 3.9525147242927154 0 5.041206756790579
			vertex 3.9525147242927154 6.7 5.041206756790579
		endloop
	endfacet
	facet normal 0.8206553568100137 0 0.5714234728631904
		outer loop
			vertex 3.9525147242927154 6.7 5.041206756790579
			vertex 3.9525147242927154 0 5.041206756790579
			vertex 4.000329665698965 0 4.972536865433158
		endloop
	endfacet
	facet normal 0.8206553568100137 0 0.5714234728631904
		outer loop
			vertex 3.9525147242927154 6.7 5.041206756790579
			vertex 4.000329665698965 0 4.972536865433158
			vertex 4.000329665698965 6.7 4.972536865433158
		endloop
	endfacet
	facet normal 0.8655546442965805 0 0.5008144943355974
		outer loop
			vertex 4.000329665698965 6.7 4.972536865433158
			vertex 4.000329665698965 0 4.972536865433158
			vertex 4.042235641040762 0 4.900111023148002
		endloop
	endfacet
	facet normal 0.8655546442965805 0 0.5008144943355974
		outer loop
			vertex 4.000329665698965 6.7 4.972536865433158
			vertex 4.042235641040762 0 4.900111023148002
			vertex 4.042235641040762 6.7 4.900111023148002
		endloop
	endfacet
	facet normal 0.9043971391850106 0 0.4266917091226031
		outer loop
			vertex 4.042235641040762 6.7 4.900111023148002
			vertex 4.042235641040762 0 4.900111023148002
			vertex 4.077939681568106 0 4.824434295853079
		endloop
	endfacet
	facet normal 0.9043971391850106 0 0.4266917091226031
		outer loop
			vertex 4.042235641040762 6.7 4.900111023148002
			vertex 4.077939681568106 0 4.824434295853079
			vertex 4.077939681568106 6.7 4.824434295853079
		endloop
	endfacet
	facet normal 0.9214553159755571 0 0.38848436346960763
		outer loop
			vertex 5.417966537036856 6.7 1.6459926759800325
			vertex 4.077939681568106 6.7 4.824434295853079
			vertex 5.417966537036856 0 1.6459926759800325
		endloop
	endfacet
	facet normal 0.9214553159755571 0 0.38848436346960763
		outer loop
			vertex 5.417966537036856 0 1.6459926759800325
			vertex 4.077939681568106 6.7 4.824434295853079
			vertex 4.077939681568106 0 4.824434295853079
		endloop
	endfacet
	facet normal 0 -1 0
		outer loop
			vertex -0.699518127880137 0 -6.766784580985606
			vertex -0.17987434431080107 0 -6.789049896041453
			vertex 3.1564842982673245 0 5.4359508668980006
		endloop
	endfacet
	facet normal 0 -1 0
		outer loop
			vertex -3.5998360828972267 0 5.432448974808157
			vertex -3.6828538136101177 0 5.421970764358939
			vertex -4.43768856092457 0 4.824434295853079
		endloop
	endfacet
	facet normal 0 -1 0
		outer loop
			vertex -3.516233177623789 0 5.4359508668980006
			vertex -3.1659749226189065 0 -6.004496701995432
			vertex 3.1564842982673245 0 5.4359508668980006
		endloop
	endfacet
	facet normal 0 -1 0
		outer loop
			vertex 3.1564842982673245 0 5.4359508668980006
			vertex -3.1659749226189065 0 -6.004496701995432
			vertex -2.7024954990959573 0 -6.240532192031443
		endloop
	endfacet
	facet normal 0 -1 0
		outer loop
			vertex 3.1564842982673245 0 5.4359508668980006
			vertex -2.7024954990959573 0 -6.240532192031443
			vertex -2.220525665721934 0 -6.436057027617991
		endloop
	endfacet
	facet normal 0 -1 0
		outer loop
			vertex -4.43768856092457 0 4.824434295853079
			vertex -3.9226269917107035 0 5.3496486818394064
			vertex -3.997592087230723 0 5.312473694046439
		endloop
	endfacet
	facet normal 0 -1 0
		outer loop
			vertex -4.024029655895274 0 -5.4181006277003885
			vertex -3.60756504102711 0 -5.7296816671291
			vertex -5.777715321025889 0 1.6459926759800325
		endloop
	endfacet
	facet normal 0 -1 0
		outer loop
			vertex -5.777715321025889 0 1.6459926759800325
			vertex -3.60756504102711 0 -5.7296816671291
			vertex -3.1659749226189065 0 -6.004496701995432
		endloop
	endfacet
	facet normal 0 -1 0
		outer loop
			vertex -5.777715321025889 0 1.6459926759800325
			vertex -3.1659749226189065 0 -6.004496701995432
			vertex -4.43768856092457 0 4.824434295853079
		endloop
	endfacet
	facet normal 0 -1 0
		outer loop
			vertex -4.43768856092457 0 4.824434295853079
			vertex -3.1659749226189065 0 -6.004496701995432
			vertex -3.516233177623789 0 5.4359508668980006
		endloop
	endfacet
	facet normal 0 -1 0
		outer loop
			vertex -4.43768856092457 0 4.824434295853079
			vertex -3.516233177623789 0 5.4359508668980006
			vertex -3.5998360828972267 0 5.432448974808157
		endloop
	endfacet
	facet normal 0 -1 0
		outer loop
			vertex 3.4850670619391995 0 5.380424896439017
			vertex 3.4049561305427147 0 5.404589477737845
			vertex 4.077939681568106 0 4.824434295853079
		endloop
	endfacet
	facet normal 0 -1 0
		outer loop
			vertex 4.077939681568106 0 4.824434295853079
			vertex 3.4049561305427147 0 5.404589477737845
			vertex 3.323104934253653 0 5.421970764358939
		endloop
	endfacet
	facet normal 0 -1 0
		outer loop
			vertex -2.220525665721934 0 -6.436057027617991
			vertex -1.723596878490489 0 -6.589638837615549
			vertex 3.1564842982673245 0 5.4359508668980006
		endloop
	endfacet
	facet normal 0 -1 0
		outer loop
			vertex 3.1564842982673245 0 5.4359508668980006
			vertex -1.723596878490489 0 -6.589638837615549
			vertex -1.2153525547600195 0 -6.700151058475077
		endloop
	endfacet
	facet normal 0 -1 0
		outer loop
			vertex 3.1564842982673245 0 5.4359508668980006
			vertex -1.2153525547600195 0 -6.700151058475077
			vertex -0.699518127880137 0 -6.766784580985606
		endloop
	endfacet
	facet normal 0 -1 0
		outer loop
			vertex -3.6828538136101177 0 5.421970764358939
			vertex -3.764704819164317 0 5.404589477737845
			vertex -4.43768856092457 0 4.824434295853079
		endloop
	endfacet
	facet normal 0 -1 0
		outer loop
			vertex -4.43768856092457 0 4.824434295853079
			vertex -3.764704819164317 0 5.404589477737845
			vertex -3.8448161320305276 0 5.380424896439017
		endloop
	endfacet
	facet normal 0 -1 0
		outer loop
			vertex -4.43768856092457 0 4.824434295853079
			vertex -3.8448161320305276 0 5.380424896439017
			vertex -3.9226269917107035 0 5.3496486818394064
		endloop
	endfacet
	facet normal 0 -1 0
		outer loop
			vertex -3.997592087230723 0 5.312473694046439
			vertex -4.069186897716563 0 5.2691616212925325
			vertex -4.43768856092457 0 4.824434295853079
		endloop
	endfacet
	facet normal 0 -1 0
		outer loop
			vertex -4.43768856092457 0 4.824434295853079
			vertex -4.069186897716563 0 5.2691616212925325
			vertex -4.13691017194752 0 5.220016113480032
		endloop
	endfacet
	facet normal 0 -1 0
		outer loop
			vertex -4.43768856092457 0 4.824434295853079
			vertex -4.13691017194752 0 5.220016113480032
			vertex -4.401984329662364 0 4.900111023148002
		endloop
	endfacet
	facet normal 0 -1 0
		outer loop
			vertex 3.323104934253653 0 5.421970764358939
			vertex 3.240087203540762 0 5.432448974808157
			vertex 4.077939681568106 0 4.824434295853079
		endloop
	endfacet
	facet normal 0 -1 0
		outer loop
			vertex 4.077939681568106 0 4.824434295853079
			vertex 3.240087203540762 0 5.432448974808157
			vertex 3.1564842982673245 0 5.4359508668980006
		endloop
	endfacet
	facet normal 0 -1 0
		outer loop
			vertex 4.077939681568106 0 4.824434295853079
			vertex 3.1564842982673245 0 5.4359508668980006
			vertex 5.417966537036856 0 1.6459926759800325
		endloop
	endfacet
	facet normal 0 -1 0
		outer loop
			vertex 5.417966537036856 0 1.6459926759800325
			vertex 3.1564842982673245 0 5.4359508668980006
			vertex 2.8062256617927144 0 -6.004496701995432
		endloop
	endfacet
	facet normal 0 -1 0
		outer loop
			vertex 5.417966537036856 0 1.6459926759800325
			vertex 2.8062256617927144 0 -6.004496701995432
			vertex 3.2478165431403703 0 -5.7296816671291
		endloop
	endfacet
	facet normal 0 -1 0
		outer loop
			vertex 5.885460738697011 0 -0.3715083921352029
			vertex 5.833930282154043 0 0.14605294819682868
			vertex 5.021049575366934 0 -3.8534789884486793
		endloop
	endfacet
	facet normal 0 -1 0
		outer loop
			vertex 5.021049575366934 0 -3.8534789884486793
			vertex 5.833930282154043 0 0.14605294819682868
			vertex 5.738317946948966 0 0.657310119827688
		endloop
	endfacet
	facet normal 0 -1 0
		outer loop
			vertex 3.709438399829825 0 5.2691616212925325
			vertex 3.637843398609121 0 5.312473694046439
			vertex 4.077939681568106 0 4.824434295853079
		endloop
	endfacet
	facet normal 0 -1 0
		outer loop
			vertex 4.077939681568106 0 4.824434295853079
			vertex 3.637843398609121 0 5.312473694046439
			vertex 3.5628777308845123 0 5.3496486818394064
		endloop
	endfacet
	facet normal 0 -1 0
		outer loop
			vertex 4.077939681568106 0 4.824434295853079
			vertex 3.5628777308845123 0 5.3496486818394064
			vertex 3.4850670619391995 0 5.380424896439017
		endloop
	endfacet
	facet normal 0 -1 0
		outer loop
			vertex -0.17987434431080107 0 -6.789049896041453
			vertex 0.33976905778880884 0 -6.766784580985606
			vertex 3.1564842982673245 0 5.4359508668980006
		endloop
	endfacet
	facet normal 0 -1 0
		outer loop
			vertex 3.1564842982673245 0 5.4359508668980006
			vertex 0.33976905778880884 0 -6.766784580985606
			vertex 0.8556038661384182 0 -6.700151058475077
		endloop
	endfacet
	facet normal 0 -1 0
		outer loop
			vertex 3.1564842982673245 0 5.4359508668980006
			vertex 0.8556038661384182 0 -6.700151058475077
			vertex 1.3638489528083397 0 -6.589638837615549
		endloop
	endfacet
	facet normal 0 -1 0
		outer loop
			vertex -4.13691017194752 0 5.220016113480032
			vertex -4.200287743053477 0 5.1653812563022985
			vertex -4.401984329662364 0 4.900111023148002
		endloop
	endfacet
	facet normal 0 -1 0
		outer loop
			vertex -4.401984329662364 0 4.900111023148002
			vertex -4.200287743053477 0 5.1653812563022985
			vertex -4.258875389537852 0 5.105637756546438
		endloop
	endfacet
	facet normal 0 -1 0
		outer loop
			vertex -4.401984329662364 0 4.900111023148002
			vertex -4.258875389537852 0 5.105637756546438
			vertex -4.360078163585704 0 4.972536865433158
		endloop
	endfacet
	facet normal 0 -1 0
		outer loop
			vertex -4.360078163585704 0 4.972536865433158
			vertex -4.258875389537852 0 5.105637756546438
			vertex -4.31226360364918 0 5.041206756790579
		endloop
	endfacet
	facet normal 0 -1 0
		outer loop
			vertex -5.630276890239756 0 -3.3970954740443826
			vertex -5.3807982639885354 0 -3.8534789884486793
			vertex -5.959072132549327 0 1.1585140382847197
		endloop
	endfacet
	facet normal 0 -1 0
		outer loop
			vertex 3.2478165431403703 0 -5.7296816671291
			vertex 3.664280776538808 0 -5.4181006277003885
			vertex 5.417966537036856 0 1.6459926759800325
		endloop
	endfacet
	facet normal 0 -1 0
		outer loop
			vertex 5.417966537036856 0 1.6459926759800325
			vertex 3.664280776538808 0 -5.4181006277003885
			vertex 4.05256736711498 0 -5.072038253585398
		endloop
	endfacet
	facet normal 0 -1 0
		outer loop
			vertex 5.417966537036856 0 1.6459926759800325
			vertex 4.05256736711498 0 -5.072038253585398
			vertex 4.409828261890372 0 -4.694031127730906
		endloop
	endfacet
	facet normal 0 -1 0
		outer loop
			vertex 4.409828261890372 0 -4.694031127730906
			vertex 4.733446578540763 0 -4.286849960128366
			vertex 5.417966537036856 0 1.6459926759800325
		endloop
	endfacet
	facet normal 0 -1 0
		outer loop
			vertex 5.417966537036856 0 1.6459926759800325
			vertex 4.733446578540763 0 -4.286849960128366
			vertex 5.021049575366934 0 -3.8534789884486793
		endloop
	endfacet
	facet normal 0 -1 0
		outer loop
			vertex 5.417966537036856 0 1.6459926759800325
			vertex 5.021049575366934 0 -3.8534789884486793
			vertex 5.599323348560294 0 1.1585140382847197
		endloop
	endfacet
	facet normal 0 -1 0
		outer loop
			vertex 5.599323348560294 0 1.1585140382847197
			vertex 5.021049575366934 0 -3.8534789884486793
			vertex 5.738317946948966 0 0.657310119827688
		endloop
	endfacet
	facet normal 0 -1 0
		outer loop
			vertex 1.3638489528083397 0 -6.589638837615549
			vertex 1.8607773585700578 0 -6.436057027617991
			vertex 3.1564842982673245 0 5.4359508668980006
		endloop
	endfacet
	facet normal 0 -1 0
		outer loop
			vertex 3.1564842982673245 0 5.4359508668980006
			vertex 1.8607773585700578 0 -6.436057027617991
			vertex 2.342746810474356 0 -6.240532192031443
		endloop
	endfacet
	facet normal 0 -1 0
		outer loop
			vertex 3.1564842982673245 0 5.4359508668980006
			vertex 2.342746810474356 0 -6.240532192031443
			vertex 2.8062256617927144 0 -6.004496701995432
		endloop
	endfacet
	facet normal 0 -1 0
		outer loop
			vertex -5.3807982639885354 0 -3.8534789884486793
			vertex -5.093195457897227 0 -4.286849960128366
			vertex -5.959072132549327 0 1.1585140382847197
		endloop
	endfacet
	facet normal 0 -1 0
		outer loop
			vertex -5.959072132549327 0 1.1585140382847197
			vertex -5.093195457897227 0 -4.286849960128366
			vertex -4.769577236614268 0 -4.694031127730906
		endloop
	endfacet
	facet normal 0 -1 0
		outer loop
			vertex -5.959072132549327 0 1.1585140382847197
			vertex -4.769577236614268 0 -4.694031127730906
			vertex -5.777715321025889 0 1.6459926759800325
		endloop
	endfacet
	facet normal 0 -1 0
		outer loop
			vertex -5.777715321025889 0 1.6459926759800325
			vertex -4.769577236614268 0 -4.694031127730906
			vertex -4.412316055736582 0 -5.072038253585398
		endloop
	endfacet
	facet normal 0 -1 0
		outer loop
			vertex -5.777715321025889 0 1.6459926759800325
			vertex -4.412316055736582 0 -5.072038253585398
			vertex -4.024029655895274 0 -5.4181006277003885
		endloop
	endfacet
	facet normal 0 -1 0
		outer loop
			vertex 5.2705284877204495 0 -3.3970954740443826
			vertex 5.480054549732168 0 -2.921045287887156
			vertex 5.855088882007559 0 -1.4103519285121555
		endloop
	endfacet
	facet normal 0 -1 0
		outer loop
			vertex 5.855088882007559 0 -1.4103519285121555
			vertex 5.480054549732168 0 -2.921045287887156
			vertex 5.648092727222403 0 -2.4288173520961402
		endloop
	endfacet
	facet normal 0 -1 0
		outer loop
			vertex 5.855088882007559 0 -1.4103519285121555
			vertex 5.648092727222403 0 -2.4288173520961402
			vertex 5.773410110034902 0 -1.924019225875437
		endloop
	endfacet
	facet normal 0 -1 0
		outer loop
			vertex 5.2705284877204495 0 -3.3970954740443826
			vertex 5.855088882007559 0 -1.4103519285121555
			vertex 5.021049575366934 0 -3.8534789884486793
		endloop
	endfacet
	facet normal 0 -1 0
		outer loop
			vertex 5.021049575366934 0 -3.8534789884486793
			vertex 5.855088882007559 0 -1.4103519285121555
			vertex 5.892531661548574 0 -0.8915813291469217
		endloop
	endfacet
	facet normal 0 -1 0
		outer loop
			vertex 5.021049575366934 0 -3.8534789884486793
			vertex 5.892531661548574 0 -0.8915813291469217
			vertex 5.885460738697011 0 -0.3715083921352029
		endloop
	endfacet
	facet normal 0 -1 0
		outer loop
			vertex 3.709438399829825 0 5.2691616212925325
			vertex 4.077939681568106 0 4.824434295853079
			vertex 3.7771607203864654 0 5.220016113480032
		endloop
	endfacet
	facet normal 0 -1 0
		outer loop
			vertex 3.7771607203864654 0 5.220016113480032
			vertex 4.077939681568106 0 4.824434295853079
			vertex 4.042235641040762 0 4.900111023148002
		endloop
	endfacet
	facet normal 0 -1 0
		outer loop
			vertex 3.7771607203864654 0 5.220016113480032
			vertex 4.042235641040762 0 4.900111023148002
			vertex 4.000329665698965 0 4.972536865433158
		endloop
	endfacet
	facet normal 0 -1 0
		outer loop
			vertex 4.000329665698965 0 4.972536865433158
			vertex 3.9525147242927154 0 5.041206756790579
			vertex 3.7771607203864654 0 5.220016113480032
		endloop
	endfacet
	facet normal 0 -1 0
		outer loop
			vertex 3.7771607203864654 0 5.220016113480032
			vertex 3.9525147242927154 0 5.041206756790579
			vertex 3.8991272731208397 0 5.105637756546438
		endloop
	endfacet
	facet normal 0 -1 0
		outer loop
			vertex 3.7771607203864654 0 5.220016113480032
			vertex 3.8991272731208397 0 5.105637756546438
			vertex 3.8405388636970113 0 5.1653812563022985
		endloop
	endfacet
	facet normal 0 -1 0
		outer loop
			vertex -5.630276890239756 0 -3.3970954740443826
			vertex -5.959072132549327 0 1.1585140382847197
			vertex -5.83980323835377 0 -2.921045287887156
		endloop
	endfacet
	facet normal 0 -1 0
		outer loop
			vertex -5.83980323835377 0 -2.921045287887156
			vertex -5.959072132549327 0 1.1585140382847197
			vertex -6.098066444835704 0 0.657310119827688
		endloop
	endfacet
	facet normal 0 -1 0
		outer loop
			vertex -5.83980323835377 0 -2.921045287887156
			vertex -6.098066444835704 0 0.657310119827688
			vertex -6.193679000577967 0 0.14605294819682868
		endloop
	endfacet
	facet normal 0 -1 0
		outer loop
			vertex -6.193679000577967 0 0.14605294819682868
			vertex -6.245209451160472 0 -0.3715083921352029
			vertex -5.83980323835377 0 -2.921045287887156
		endloop
	endfacet
	facet normal 0 -1 0
		outer loop
			vertex -5.83980323835377 0 -2.921045287887156
			vertex -6.245209451160472 0 -0.3715083921352029
			vertex -6.2522796796179225 0 -0.8915813291469217
		endloop
	endfacet
	facet normal 0 -1 0
		outer loop
			vertex -5.83980323835377 0 -2.921045287887156
			vertex -6.2522796796179225 0 -0.8915813291469217
			vertex -6.0078414158440046 0 -2.4288173520961402
		endloop
	endfacet
	facet normal 0 -1 0
		outer loop
			vertex -6.0078414158440046 0 -2.4288173520961402
			vertex -6.2522796796179225 0 -0.8915813291469217
			vertex -6.214838276944201 0 -1.4103519285121555
		endloop
	endfacet
	facet normal 0 -1 0
		outer loop
			vertex -6.0078414158440046 0 -2.4288173520961402
			vertex -6.214838276944201 0 -1.4103519285121555
			vertex -6.133159048996013 0 -1.924019225875437
		endloop
	endfacet
	facet normal 0 1 0
		outer loop
			vertex -3.5998360828972267 6.7 5.432448974808157
			vertex -3.516233177623789 6.7 5.4359508668980006
			vertex -3.9226269917107035 6.7 5.3496486818394064
		endloop
	endfacet
	facet normal 0 1 0
		outer loop
			vertex -4.200287743053477 6.7 5.1653812563022985
			vertex -4.13691017194752 6.7 5.220016113480032
			vertex -3.516233177623789 6.7 5.4359508668980006
		endloop
	endfacet
	facet normal 0 1 0
		outer loop
			vertex 0.33976905778880884 6.7 -6.766784580985606
			vertex -0.17987434431080107 6.7 -6.789049896041453
			vertex 3.1564842982673245 6.7 5.4359508668980006
		endloop
	endfacet
	facet normal 0 1 0
		outer loop
			vertex 4.077939681568106 6.7 4.824434295853079
			vertex 5.417966537036856 6.7 1.6459926759800325
			vertex 2.8062256617927144 6.7 -6.004496701995432
		endloop
	endfacet
	facet normal 0 1 0
		outer loop
			vertex 3.1564842982673245 6.7 5.4359508668980006
			vertex 3.240087203540762 6.7 5.432448974808157
			vertex 4.077939681568106 6.7 4.824434295853079
		endloop
	endfacet
	facet normal 0 1 0
		outer loop
			vertex 4.077939681568106 6.7 4.824434295853079
			vertex 3.240087203540762 6.7 5.432448974808157
			vertex 3.323104934253653 6.7 5.421970764358939
		endloop
	endfacet
	facet normal 0 1 0
		outer loop
			vertex 3.323104934253653 6.7 5.421970764358939
			vertex 3.4049561305427147 6.7 5.404589477737845
			vertex 4.077939681568106 6.7 4.824434295853079
		endloop
	endfacet
	facet normal 0 1 0
		outer loop
			vertex 4.077939681568106 6.7 4.824434295853079
			vertex 3.4049561305427147 6.7 5.404589477737845
			vertex 3.4850670619391995 6.7 5.380424896439017
		endloop
	endfacet
	facet normal 0 1 0
		outer loop
			vertex 4.077939681568106 6.7 4.824434295853079
			vertex 3.4850670619391995 6.7 5.380424896439017
			vertex 3.5628777308845123 6.7 5.3496486818394064
		endloop
	endfacet
	facet normal 0 1 0
		outer loop
			vertex -5.093195457897227 6.7 -4.286849960128366
			vertex -5.3807982639885354 6.7 -3.8534789884486793
			vertex -5.777715321025889 6.7 1.6459926759800325
		endloop
	endfacet
	facet normal 0 1 0
		outer loop
			vertex -0.17987434431080107 6.7 -6.789049896041453
			vertex -0.699518127880137 6.7 -6.766784580985606
			vertex 3.1564842982673245 6.7 5.4359508668980006
		endloop
	endfacet
	facet normal 0 1 0
		outer loop
			vertex 3.1564842982673245 6.7 5.4359508668980006
			vertex -0.699518127880137 6.7 -6.766784580985606
			vertex -1.2153525547600195 6.7 -6.700151058475077
		endloop
	endfacet
	facet normal 0 1 0
		outer loop
			vertex 3.1564842982673245 6.7 5.4359508668980006
			vertex -1.2153525547600195 6.7 -6.700151058475077
			vertex -1.723596878490489 6.7 -6.589638837615549
		endloop
	endfacet
	facet normal 0 1 0
		outer loop
			vertex -1.723596878490489 6.7 -6.589638837615549
			vertex -2.220525665721934 6.7 -6.436057027617991
			vertex 3.1564842982673245 6.7 5.4359508668980006
		endloop
	endfacet
	facet normal 0 1 0
		outer loop
			vertex 3.1564842982673245 6.7 5.4359508668980006
			vertex -2.220525665721934 6.7 -6.436057027617991
			vertex -2.7024954990959573 6.7 -6.240532192031443
		endloop
	endfacet
	facet normal 0 1 0
		outer loop
			vertex 3.1564842982673245 6.7 5.4359508668980006
			vertex -2.7024954990959573 6.7 -6.240532192031443
			vertex -3.516233177623789 6.7 5.4359508668980006
		endloop
	endfacet
	facet normal 0 1 0
		outer loop
			vertex -3.516233177623789 6.7 5.4359508668980006
			vertex -2.7024954990959573 6.7 -6.240532192031443
			vertex -3.1659749226189065 6.7 -6.004496701995432
		endloop
	endfacet
	facet normal 0 1 0
		outer loop
			vertex -3.516233177623789 6.7 5.4359508668980006
			vertex -3.1659749226189065 6.7 -6.004496701995432
			vertex -5.777715321025889 6.7 1.6459926759800325
		endloop
	endfacet
	facet normal 0 1 0
		outer loop
			vertex -5.777715321025889 6.7 1.6459926759800325
			vertex -3.1659749226189065 6.7 -6.004496701995432
			vertex -3.60756504102711 6.7 -5.7296816671291
		endloop
	endfacet
	facet normal 0 1 0
		outer loop
			vertex -5.777715321025889 6.7 1.6459926759800325
			vertex -3.60756504102711 6.7 -5.7296816671291
			vertex -4.024029655895274 6.7 -5.4181006277003885
		endloop
	endfacet
	facet normal 0 1 0
		outer loop
			vertex -5.777715321025889 6.7 1.6459926759800325
			vertex -4.43768856092457 6.7 4.824434295853079
			vertex -3.516233177623789 6.7 5.4359508668980006
		endloop
	endfacet
	facet normal 0 1 0
		outer loop
			vertex -3.516233177623789 6.7 5.4359508668980006
			vertex -4.43768856092457 6.7 4.824434295853079
			vertex -4.401984329662364 6.7 4.900111023148002
		endloop
	endfacet
	facet normal 0 1 0
		outer loop
			vertex -3.516233177623789 6.7 5.4359508668980006
			vertex -4.401984329662364 6.7 4.900111023148002
			vertex -4.360078163585704 6.7 4.972536865433158
		endloop
	endfacet
	facet normal 0 1 0
		outer loop
			vertex -4.13691017194752 6.7 5.220016113480032
			vertex -4.069186897716563 6.7 5.2691616212925325
			vertex -3.516233177623789 6.7 5.4359508668980006
		endloop
	endfacet
	facet normal 0 1 0
		outer loop
			vertex -3.516233177623789 6.7 5.4359508668980006
			vertex -4.069186897716563 6.7 5.2691616212925325
			vertex -3.997592087230723 6.7 5.312473694046439
		endloop
	endfacet
	facet normal 0 1 0
		outer loop
			vertex -3.516233177623789 6.7 5.4359508668980006
			vertex -3.997592087230723 6.7 5.312473694046439
			vertex -3.9226269917107035 6.7 5.3496486818394064
		endloop
	endfacet
	facet normal 0 1 0
		outer loop
			vertex 4.077939681568106 6.7 4.824434295853079
			vertex 2.8062256617927144 6.7 -6.004496701995432
			vertex 3.1564842982673245 6.7 5.4359508668980006
		endloop
	endfacet
	facet normal 0 1 0
		outer loop
			vertex 3.1564842982673245 6.7 5.4359508668980006
			vertex 2.8062256617927144 6.7 -6.004496701995432
			vertex 2.342746810474356 6.7 -6.240532192031443
		endloop
	endfacet
	facet normal 0 1 0
		outer loop
			vertex 3.1564842982673245 6.7 5.4359508668980006
			vertex 2.342746810474356 6.7 -6.240532192031443
			vertex 1.8607773585700578 6.7 -6.436057027617991
		endloop
	endfacet
	facet normal 0 1 0
		outer loop
			vertex 3.5628777308845123 6.7 5.3496486818394064
			vertex 3.637843398609121 6.7 5.312473694046439
			vertex 4.077939681568106 6.7 4.824434295853079
		endloop
	endfacet
	facet normal 0 1 0
		outer loop
			vertex 4.077939681568106 6.7 4.824434295853079
			vertex 3.637843398609121 6.7 5.312473694046439
			vertex 3.709438399829825 6.7 5.2691616212925325
		endloop
	endfacet
	facet normal 0 1 0
		outer loop
			vertex 4.077939681568106 6.7 4.824434295853079
			vertex 3.709438399829825 6.7 5.2691616212925325
			vertex 3.7771607203864654 6.7 5.220016113480032
		endloop
	endfacet
	facet normal 0 1 0
		outer loop
			vertex 5.021049575366934 6.7 -3.8534789884486793
			vertex 5.417966537036856 6.7 1.6459926759800325
			vertex 5.599323348560294 6.7 1.1585140382847197
		endloop
	endfacet
	facet normal 0 1 0
		outer loop
			vertex 5.021049575366934 6.7 -3.8534789884486793
			vertex 4.733446578540763 6.7 -4.286849960128366
			vertex 5.417966537036856 6.7 1.6459926759800325
		endloop
	endfacet
	facet normal 0 1 0
		outer loop
			vertex 5.417966537036856 6.7 1.6459926759800325
			vertex 4.733446578540763 6.7 -4.286849960128366
			vertex 4.409828261890372 6.7 -4.694031127730906
		endloop
	endfacet
	facet normal 0 1 0
		outer loop
			vertex 5.417966537036856 6.7 1.6459926759800325
			vertex 4.409828261890372 6.7 -4.694031127730906
			vertex 4.05256736711498 6.7 -5.072038253585398
		endloop
	endfacet
	facet normal 0 1 0
		outer loop
			vertex 4.05256736711498 6.7 -5.072038253585398
			vertex 3.664280776538808 6.7 -5.4181006277003885
			vertex 5.417966537036856 6.7 1.6459926759800325
		endloop
	endfacet
	facet normal 0 1 0
		outer loop
			vertex 5.417966537036856 6.7 1.6459926759800325
			vertex 3.664280776538808 6.7 -5.4181006277003885
			vertex 3.2478165431403703 6.7 -5.7296816671291
		endloop
	endfacet
	facet normal 0 1 0
		outer loop
			vertex 5.417966537036856 6.7 1.6459926759800325
			vertex 3.2478165431403703 6.7 -5.7296816671291
			vertex 2.8062256617927144 6.7 -6.004496701995432
		endloop
	endfacet
	facet normal 0 1 0
		outer loop
			vertex -4.024029655895274 6.7 -5.4181006277003885
			vertex -4.412316055736582 6.7 -5.072038253585398
			vertex -5.777715321025889 6.7 1.6459926759800325
		endloop
	endfacet
	facet normal 0 1 0
		outer loop
			vertex -5.777715321025889 6.7 1.6459926759800325
			vertex -4.412316055736582 6.7 -5.072038253585398
			vertex -4.769577236614268 6.7 -4.694031127730906
		endloop
	endfacet
	facet normal 0 1 0
		outer loop
			vertex -5.777715321025889 6.7 1.6459926759800325
			vertex -4.769577236614268 6.7 -4.694031127730906
			vertex -5.093195457897227 6.7 -4.286849960128366
		endloop
	endfacet
	facet normal 0 1 0
		outer loop
			vertex -4.360078163585704 6.7 4.972536865433158
			vertex -4.31226360364918 6.7 5.041206756790579
			vertex -3.516233177623789 6.7 5.4359508668980006
		endloop
	endfacet
	facet normal 0 1 0
		outer loop
			vertex -3.516233177623789 6.7 5.4359508668980006
			vertex -4.31226360364918 6.7 5.041206756790579
			vertex -4.258875389537852 6.7 5.105637756546438
		endloop
	endfacet
	facet normal 0 1 0
		outer loop
			vertex -3.516233177623789 6.7 5.4359508668980006
			vertex -4.258875389537852 6.7 5.105637756546438
			vertex -4.200287743053477 6.7 5.1653812563022985
		endloop
	endfacet
	facet normal 0 1 0
		outer loop
			vertex -3.5998360828972267 6.7 5.432448974808157
			vertex -3.9226269917107035 6.7 5.3496486818394064
			vertex -3.6828538136101177 6.7 5.421970764358939
		endloop
	endfacet
	facet normal 0 1 0
		outer loop
			vertex -3.6828538136101177 6.7 5.421970764358939
			vertex -3.9226269917107035 6.7 5.3496486818394064
			vertex -3.8448161320305276 6.7 5.380424896439017
		endloop
	endfacet
	facet normal 0 1 0
		outer loop
			vertex -3.6828538136101177 6.7 5.421970764358939
			vertex -3.8448161320305276 6.7 5.380424896439017
			vertex -3.764704819164317 6.7 5.404589477737845
		endloop
	endfacet
	facet normal 0 1 0
		outer loop
			vertex 1.8607773585700578 6.7 -6.436057027617991
			vertex 1.3638489528083397 6.7 -6.589638837615549
			vertex 3.1564842982673245 6.7 5.4359508668980006
		endloop
	endfacet
	facet normal 0 1 0
		outer loop
			vertex 3.1564842982673245 6.7 5.4359508668980006
			vertex 1.3638489528083397 6.7 -6.589638837615549
			vertex 0.8556038661384182 6.7 -6.700151058475077
		endloop
	endfacet
	facet normal 0 1 0
		outer loop
			vertex 3.1564842982673245 6.7 5.4359508668980006
			vertex 0.8556038661384182 6.7 -6.700151058475077
			vertex 0.33976905778880884 6.7 -6.766784580985606
		endloop
	endfacet
	facet normal 0 1 0
		outer loop
			vertex 3.9525147242927154 6.7 5.041206756790579
			vertex 3.7771607203864654 6.7 5.220016113480032
			vertex 3.8991272731208397 6.7 5.105637756546438
		endloop
	endfacet
	facet normal 0 1 0
		outer loop
			vertex 3.8991272731208397 6.7 5.105637756546438
			vertex 3.7771607203864654 6.7 5.220016113480032
			vertex 3.8405388636970113 6.7 5.1653812563022985
		endloop
	endfacet
	facet normal 0 1 0
		outer loop
			vertex 3.9525147242927154 6.7 5.041206756790579
			vertex 4.000329665698965 6.7 4.972536865433158
			vertex 3.7771607203864654 6.7 5.220016113480032
		endloop
	endfacet
	facet normal 0 1 0
		outer loop
			vertex 3.7771607203864654 6.7 5.220016113480032
			vertex 4.000329665698965 6.7 4.972536865433158
			vertex 4.042235641040762 6.7 4.900111023148002
		endloop
	endfacet
	facet normal 0 1 0
		outer loop
			vertex 3.7771607203864654 6.7 5.220016113480032
			vertex 4.042235641040762 6.7 4.900111023148002
			vertex 4.077939681568106 6.7 4.824434295853079
		endloop
	endfacet
	facet normal 0 1 0
		outer loop
			vertex 5.599323348560294 6.7 1.1585140382847197
			vertex 5.738317946948966 6.7 0.657310119827688
			vertex 5.021049575366934 6.7 -3.8534789884486793
		endloop
	endfacet
	facet normal 0 1 0
		outer loop
			vertex 5.021049575366934 6.7 -3.8534789884486793
			vertex 5.738317946948966 6.7 0.657310119827688
			vertex 5.833930282154043 6.7 0.14605294819682868
		endloop
	endfacet
	facet normal 0 1 0
		outer loop
			vertex 5.021049575366934 6.7 -3.8534789884486793
			vertex 5.833930282154043 6.7 0.14605294819682868
			vertex 5.885460738697011 6.7 -0.3715083921352029
		endloop
	endfacet
	facet normal 0 1 0
		outer loop
			vertex 5.885460738697011 6.7 -0.3715083921352029
			vertex 5.892531661548574 6.7 -0.8915813291469217
			vertex 5.021049575366934 6.7 -3.8534789884486793
		endloop
	endfacet
	facet normal 0 1 0
		outer loop
			vertex 5.021049575366934 6.7 -3.8534789884486793
			vertex 5.892531661548574 6.7 -0.8915813291469217
			vertex 5.855088882007559 6.7 -1.4103519285121555
		endloop
	endfacet
	facet normal 0 1 0
		outer loop
			vertex 5.021049575366934 6.7 -3.8534789884486793
			vertex 5.855088882007559 6.7 -1.4103519285121555
			vertex 5.773410110034902 6.7 -1.924019225875437
		endloop
	endfacet
	facet normal 0 1 0
		outer loop
			vertex 5.773410110034902 6.7 -1.924019225875437
			vertex 5.648092727222403 6.7 -2.4288173520961402
			vertex 5.021049575366934 6.7 -3.8534789884486793
		endloop
	endfacet
	facet normal 0 1 0
		outer loop
			vertex 5.021049575366934 6.7 -3.8534789884486793
			vertex 5.648092727222403 6.7 -2.4288173520961402
			vertex 5.480054549732168 6.7 -2.921045287887156
		endloop
	endfacet
	facet normal 0 1 0
		outer loop
			vertex 5.021049575366934 6.7 -3.8534789884486793
			vertex 5.480054549732168 6.7 -2.921045287887156
			vertex 5.2705284877204495 6.7 -3.3970954740443826
		endloop
	endfacet
	facet normal 0 1 0
		outer loop
			vertex -6.133159048996013 6.7 -1.924019225875437
			vertex -6.214838276944201 6.7 -1.4103519285121555
			vertex -6.2522796796179225 6.7 -0.8915813291469217
		endloop
	endfacet
	facet normal 0 1 0
		outer loop
			vertex -6.098066444835704 6.7 0.657310119827688
			vertex -5.83980323835377 6.7 -2.921045287887156
			vertex -6.193679000577967 6.7 0.14605294819682868
		endloop
	endfacet
	facet normal 0 1 0
		outer loop
			vertex -6.193679000577967 6.7 0.14605294819682868
			vertex -5.83980323835377 6.7 -2.921045287887156
			vertex -6.245209451160472 6.7 -0.3715083921352029
		endloop
	endfacet
	facet normal 0 1 0
		outer loop
			vertex -5.3807982639885354 6.7 -3.8534789884486793
			vertex -5.630276890239756 6.7 -3.3970954740443826
			vertex -5.777715321025889 6.7 1.6459926759800325
		endloop
	endfacet
	facet normal 0 1 0
		outer loop
			vertex -5.777715321025889 6.7 1.6459926759800325
			vertex -5.630276890239756 6.7 -3.3970954740443826
			vertex -5.83980323835377 6.7 -2.921045287887156
		endloop
	endfacet
	facet normal 0 1 0
		outer loop
			vertex -5.777715321025889 6.7 1.6459926759800325
			vertex -5.83980323835377 6.7 -2.921045287887156
			vertex -5.959072132549327 6.7 1.1585140382847197
		endloop
	endfacet
	facet normal 0 1 0
		outer loop
			vertex -5.959072132549327 6.7 1.1585140382847197
			vertex -5.83980323835377 6.7 -2.921045287887156
			vertex -6.098066444835704 6.7 0.657310119827688
		endloop
	endfacet
	facet normal 0 1 0
		outer loop
			vertex -6.245209451160472 6.7 -0.3715083921352029
			vertex -5.83980323835377 6.7 -2.921045287887156
			vertex -6.2522796796179225 6.7 -0.8915813291469217
		endloop
	endfacet
	facet normal 0 1 0
		outer loop
			vertex -6.2522796796179225 6.7 -0.8915813291469217
			vertex -5.83980323835377 6.7 -2.921045287887156
			vertex -6.0078414158440046 6.7 -2.4288173520961402
		endloop
	endfacet
	facet normal 0 1 0
		outer loop
			vertex -6.2522796796179225 6.7 -0.8915813291469217
			vertex -6.0078414158440046 6.7 -2.4288173520961402
			vertex -6.133159048996013 6.7 -1.924019225875437
		endloop
	endfacet
endsolid exported
